<svg width="28" height="23" viewBox="0 0 28 23" fill="none" xmlns="http://www.w3.org/2000/svg">
<path d="M8.95545 17.8146C8.95545 19.3553 8.47398 20.6072 7.51103 21.5701C6.54807 22.4689 5.42463 22.9183 4.14069 22.9183C3.11354 22.9183 2.15059 22.5331 1.25184 21.7627C0.417279 20.9924 0 19.8368 0 18.2961C0 16.948 0.417279 15.3109 1.25184 13.385C2.0864 11.3949 3.27404 9.27644 4.81476 7.02955C6.41968 4.71847 8.34558 2.37528 10.5925 0L13.2887 2.21479C11.1702 5.23204 9.72582 7.57522 8.95545 9.24434C8.18509 10.9135 7.79991 12.1332 7.79991 12.9036C7.79991 13.7381 7.9925 14.5085 8.37768 15.2146C8.76286 15.8566 8.95545 16.7233 8.95545 17.8146ZM23.6886 17.8146C23.6886 19.3553 23.2071 20.6072 22.2442 21.5701C21.2812 22.4689 20.1578 22.9183 18.8739 22.9183C17.8467 22.9183 16.8838 22.5331 15.985 21.7627C15.1504 20.9924 14.7332 19.8368 14.7332 18.2961C14.7332 16.948 15.1183 15.3109 15.8887 13.385C16.7233 11.3949 17.943 9.27644 19.5479 7.02955C21.1528 4.71847 23.0788 2.37528 25.3256 0L27.9256 2.21479C25.8713 5.23204 24.459 7.57522 23.6886 9.24434C22.9183 10.9135 22.5331 12.1332 22.5331 12.9036C22.5331 13.7381 22.7257 14.5085 23.1108 15.2146C23.496 15.8566 23.6886 16.7233 23.6886 17.8146Z" fill="#CAA24D"/>
</svg>
